<?xml version="1.0" standalone="no"?>
<!DOCTYPE svg PUBLIC "-//W3C//DTD SVG 20010904//EN"
 "http://www.w3.org/TR/2001/REC-SVG-20010904/DTD/svg10.dtd">
<svg version="1.0" xmlns="http://www.w3.org/2000/svg"
 width="224.000000pt" height="224.000000pt" viewBox="0 0 224.000000 224.000000"
 preserveAspectRatio="xMidYMid meet">
<metadata>
Created by potrace 1.11, written by Peter Selinger 2001-2013
</metadata>
<g transform="translate(0.000000,224.000000) scale(0.100000,-0.100000)"
fill="#000000" stroke="none">
<path d="M965 1863 c-384 -82 -648 -449 -597 -831 65 -488 550 -788 1007 -625
233 84 418 283 480 518 51 195 19 413 -86 593 -44 73 -178 207 -251 251 -170
100 -369 134 -553 94z m330 -49 c33 -8 103 -35 155 -61 79 -38 110 -61 181
-133 73 -72 94 -101 132 -180 103 -215 104 -431 3 -635 -73 -148 -180 -257
-321 -326 -115 -56 -190 -73 -320 -73 -131 0 -205 17 -325 76 -68 33 -102 59
-176 132 -77 77 -98 105 -138 186 -103 211 -103 425 2 640 81 168 241 303 430
365 108 35 253 38 377 9z"/>
<path d="M1050 1804 c-169 -25 -306 -91 -414 -200 -133 -135 -197 -292 -197
-484 0 -125 16 -195 71 -305 184 -373 648 -496 995 -264 184 124 305 348 305
569 0 155 -71 341 -175 457 -64 72 -178 152 -262 183 -100 38 -236 56 -323 44z
m-274 -557 c23 -27 24 -35 24 -163 l0 -134 -30 0 c-16 0 -30 3 -30 8 0 4 -4
13 -9 21 -7 12 -14 10 -36 -8 -33 -25 -109 -29 -142 -6 -28 20 -45 72 -35 110
11 39 64 75 111 75 55 0 81 10 81 31 0 31 -35 43 -88 29 -41 -10 -48 -9 -59 6
-32 44 6 65 116 61 66 -2 75 -5 97 -30z m338 23 c25 -9 26 -11 12 -42 -8 -20
-19 -31 -27 -29 -92 25 -129 0 -129 -88 0 -77 62 -113 133 -77 l27 15 0 -40
c0 -47 -21 -59 -103 -59 -94 0 -147 57 -147 158 0 79 33 141 85 162 28 12 119
12 149 0z m169 -11 l6 -21 27 21 c36 29 111 29 148 0 l26 -20 26 20 c39 31
114 29 151 -3 28 -24 28 -25 31 -165 l4 -141 -46 0 -46 0 0 111 c0 126 -8 149
-50 149 -49 0 -60 -29 -60 -152 l0 -108 -45 0 -45 0 0 111 c0 126 -8 149 -50
149 -49 0 -60 -29 -60 -152 l0 -108 -45 0 -45 0 0 165 0 165 34 0 c26 0 35 -5
39 -21z"/>
<path d="M628 1089 c-25 -14 -24 -66 2 -74 34 -11 75 16 78 53 3 30 2 32 -30
32 -18 0 -41 -5 -50 -11z"/>
</g>
</svg>
